<svg width="14" height="20" viewBox="0 0 14 20" fill="none" xmlns="http://www.w3.org/2000/svg">
<path d="M0.514063 3.82738L3.57292 0.550674C3.90104 0.19918 4.34583 0 4.80885 0H12.25C13.2161 0.00390549 14 0.843585 14 1.87854V18.1254C14 19.1603 13.2161 20 12.25 20H1.75C0.783854 20 0 19.1603 0 18.1254V5.15524C0 4.65925 0.185938 4.17887 0.514063 3.82738ZM1.89219 5.00293H4.66667V2.03085L1.89219 5.00293ZM12.25 18.1254V1.87854H6.41667V5.94025C6.41667 6.45968 6.02656 6.87756 5.54167 6.87756H1.75V18.1254H12.25Z" fill="#333333"/>
</svg>
