<svg width="16" height="19" viewBox="0 0 16 19" fill="none" xmlns="http://www.w3.org/2000/svg">
<path d="M0.807028 11.7521C1.41378 11.156 2.04081 10.5396 2.04081 7.62983C2.04081 4.68146 4.21789 2.22947 7.05749 1.77891C6.9267 1.5899 6.85682 1.3658 6.85713 1.13636C6.85713 0.508771 7.36881 0 7.99999 0C8.63117 0 9.14285 0.508771 9.14285 1.13636C9.14317 1.3658 9.07331 1.58991 8.94253 1.77894C11.7821 2.22951 13.9592 4.6815 13.9592 7.62987C13.9592 10.5394 14.586 11.1559 15.1928 11.752C16.9106 13.439 15.6526 15.9091 13.61 15.9091H10.2857C10.2857 17.1643 9.26235 18.1818 7.99999 18.1818C6.73764 18.1818 5.71428 17.1643 5.71428 15.9091H2.38999C0.347493 15.9091 -0.910544 13.4381 0.807028 11.7521ZM7.99999 16.7614C8.47264 16.7614 8.85713 16.379 8.85713 15.9091H7.14285C7.14285 16.379 7.52735 16.7614 7.99999 16.7614ZM2.38956 14.2045H13.6107C14.2094 14.2045 14.5084 13.4805 14.0869 13.0614C13.066 12.0463 12.2449 11.0826 12.2449 7.62987C12.2449 5.30252 10.3406 3.40909 7.99999 3.40909C5.65935 3.40909 3.7551 5.30252 3.7551 7.62987C3.7551 11.0975 2.92578 12.0537 1.91339 13.0614C1.49006 13.4823 1.79346 14.2045 2.38956 14.2045Z" fill="#333333"/>
</svg>
