<svg width="14" height="22" viewBox="0 0 14 22" fill="none" xmlns="http://www.w3.org/2000/svg">
<path d="M12.4444 0H1.55556C1.143 0 0.747335 0.163888 0.455612 0.455612C0.163889 0.747335 0 1.143 0 1.55556V20.2222C0 20.6348 0.163889 21.0304 0.455612 21.3222C0.747335 21.6139 1.143 21.7778 1.55556 21.7778H12.4444C12.857 21.7778 13.2527 21.6139 13.5444 21.3222C13.8361 21.0304 14 20.6348 14 20.2222V1.55556C14 1.143 13.8361 0.747335 13.5444 0.455612C13.2527 0.163888 12.857 0 12.4444 0ZM1.55556 1.55556H12.4444V15.5556H1.55556V1.55556ZM1.55556 20.2222V17.1111H12.4444V20.2222H1.55556Z" fill="#333333"/>
</svg>
