<svg width="16" height="16" viewBox="0 0 16 16" fill="none" xmlns="http://www.w3.org/2000/svg">
<path d="M4.25 6.5C4.10166 6.5 3.95666 6.54399 3.83332 6.6264C3.70999 6.70881 3.61386 6.82594 3.55709 6.96299C3.50032 7.10003 3.48547 7.25083 3.51441 7.39632C3.54335 7.5418 3.61478 7.67544 3.71967 7.78033C3.82456 7.88522 3.9582 7.95665 4.10368 7.98559C4.24917 8.01453 4.39997 7.99968 4.53701 7.94291C4.67406 7.88614 4.79119 7.79001 4.8736 7.66668C4.95601 7.54334 5 7.39834 5 7.25C5 7.05109 4.92098 6.86032 4.78033 6.71967C4.63968 6.57902 4.44891 6.5 4.25 6.5ZM13.25 3.5H12.5V1.25C12.5 1.05109 12.421 0.860322 12.2803 0.71967C12.1397 0.579018 11.9489 0.5 11.75 0.5H4.25C4.05109 0.5 3.86032 0.579018 3.71967 0.71967C3.57902 0.860322 3.5 1.05109 3.5 1.25V3.5H2.75C2.15326 3.5 1.58097 3.73705 1.15901 4.15901C0.737053 4.58097 0.5 5.15326 0.5 5.75V10.25C0.5 10.8467 0.737053 11.419 1.15901 11.841C1.58097 12.2629 2.15326 12.5 2.75 12.5H3.5V14.75C3.5 14.9489 3.57902 15.1397 3.71967 15.2803C3.86032 15.421 4.05109 15.5 4.25 15.5H11.75C11.9489 15.5 12.1397 15.421 12.2803 15.2803C12.421 15.1397 12.5 14.9489 12.5 14.75V12.5H13.25C13.8467 12.5 14.419 12.2629 14.841 11.841C15.2629 11.419 15.5 10.8467 15.5 10.25V5.75C15.5 5.15326 15.2629 4.58097 14.841 4.15901C14.419 3.73705 13.8467 3.5 13.25 3.5ZM5 2H11V3.5H5V2ZM11 14H5V11H11V14ZM14 10.25C14 10.4489 13.921 10.6397 13.7803 10.7803C13.6397 10.921 13.4489 11 13.25 11H12.5V10.25C12.5 10.0511 12.421 9.86032 12.2803 9.71967C12.1397 9.57902 11.9489 9.5 11.75 9.5H4.25C4.05109 9.5 3.86032 9.57902 3.71967 9.71967C3.57902 9.86032 3.5 10.0511 3.5 10.25V11H2.75C2.55109 11 2.36032 10.921 2.21967 10.7803C2.07902 10.6397 2 10.4489 2 10.25V5.75C2 5.55109 2.07902 5.36032 2.21967 5.21967C2.36032 5.07902 2.55109 5 2.75 5H13.25C13.4489 5 13.6397 5.07902 13.7803 5.21967C13.921 5.36032 14 5.55109 14 5.75V10.25Z" fill="#026EB5"/>
</svg>
