<svg width="15" height="11" viewBox="0 0 15 11" fill="none" xmlns="http://www.w3.org/2000/svg">
<path d="M13.5938 11H1.40625C0.62959 11 0 10.3844 0 9.625V1.375C0 0.615599 0.62959 0 1.40625 0H13.5938C14.3704 0 15 0.615599 15 1.375V9.625C15 10.3844 14.3704 11 13.5938 11ZM3.28125 1.60417C2.37516 1.60417 1.64062 2.32238 1.64062 3.20833C1.64062 4.09429 2.37516 4.8125 3.28125 4.8125C4.18734 4.8125 4.92188 4.09429 4.92188 3.20833C4.92188 2.32238 4.18734 1.60417 3.28125 1.60417ZM1.875 9.16667H13.125V5.95833L10.5611 3.45139C10.4238 3.31716 10.2012 3.31716 10.0639 3.45139L6.09375 7.33333L4.46733 5.74306C4.33005 5.60883 4.10745 5.60883 3.97014 5.74306L1.875 7.79167V9.16667Z" fill="white"/>
</svg>
