<svg width="15" height="11" viewBox="0 0 15 11" fill="none" xmlns="http://www.w3.org/2000/svg">
<path d="M15 10.4103V2.16109C15 2.05165 14.9677 1.94437 14.9067 1.85128C14.8456 1.75818 14.7583 1.68295 14.6545 1.63402L11.3212 0.0625906C10.9101 -0.131211 10.4167 0.147521 10.4167 0.589657V8.83892C10.4167 8.94835 10.449 9.05563 10.51 9.14872C10.571 9.24182 10.6583 9.31705 10.7622 9.36598L14.0955 10.9374C14.5066 11.1312 15 10.8525 15 10.4103ZM9.62883 9.37738L5.87883 10.9488C5.46865 11.1207 5 10.8393 5 10.4103V2.16111C5 2.04712 5.03507 1.93558 5.10095 1.84C5.16683 1.74443 5.26069 1.66892 5.37117 1.62262L9.12117 0.0511971C9.53135 -0.120678 10 0.16073 10 0.589681V8.83887C10 8.95286 9.96494 9.0644 9.89906 9.15999C9.83318 9.25557 9.73931 9.33108 9.62883 9.37738ZM3.67883 10.9374L0.345495 9.36635C0.241675 9.31741 0.154361 9.24218 0.0933386 9.14909C0.0323158 9.056 -4.45108e-06 8.94872 4.59779e-10 8.83928V0.589657C4.59779e-10 0.147521 0.493438 -0.131211 0.904505 0.0625906L4.23784 1.63365C4.34166 1.68259 4.42897 1.75782 4.48999 1.85091C4.55102 1.944 4.58334 2.05128 4.58333 2.16072V10.4103C4.58333 10.8525 4.0899 11.1312 3.67883 10.9374Z" fill="white"/>
</svg>
