<svg width="16" height="16" viewBox="0 0 16 16" fill="none" xmlns="http://www.w3.org/2000/svg">
<path d="M15.1805 5.06138L10.8112 4.43281L8.85832 0.525656C8.50841 -0.170785 7.49458 -0.179638 7.14168 0.525656L5.18879 4.43281L0.819452 5.06138C0.0359019 5.17352 -0.278116 6.1267 0.290107 6.67264L3.45122 9.71219L2.70356 14.0059C2.56898 14.7821 3.39739 15.3634 4.09122 15.0004L8 12.9731L11.9088 15.0004C12.6026 15.3605 13.431 14.7821 13.2964 14.0059L12.5488 9.71219L15.7099 6.67264C16.2781 6.1267 15.9641 5.17352 15.1805 5.06138ZM11.0086 9.21642L11.7174 13.3006L8 11.3736L4.28262 13.3006L4.99141 9.21642L1.98281 6.32442L6.13982 5.72831L8 2.01002L9.86018 5.72831L14.0172 6.32442L11.0086 9.21642Z" fill="#026EB5"/>
</svg>
