<svg width="15" height="15" viewBox="0 0 15 15" fill="none" xmlns="http://www.w3.org/2000/svg">
<path d="M12.4016 8.52612L11.7838 8.34961C12.6503 7.14522 12.7734 5.92658 12.7734 5.27344C12.7734 2.36276 10.4146 0 7.5 0C4.58933 0 2.22656 2.35887 2.22656 5.27344C2.22656 5.92673 2.34955 7.14504 3.21618 8.34961L2.59837 8.52612C0.623437 9.09038 0 10.8864 0 11.9708V12.7232C0 13.9787 1.02135 15 2.27678 15H12.7232C13.9787 15 15 13.9787 15 12.7232V11.9708C15 10.9089 14.3928 9.09504 12.4016 8.52612ZM7.5 1.40625C9.6358 1.40625 11.3672 3.13767 11.3672 5.27344C11.3672 7.40921 9.6358 9.14062 7.5 9.14062C5.3642 9.14062 3.63281 7.40921 3.63281 5.27344C3.63281 3.13767 5.3642 1.40625 7.5 1.40625ZM13.5938 12.7232C13.5938 13.204 13.204 13.5938 12.7232 13.5938H2.27678C1.79602 13.5938 1.40625 13.204 1.40625 12.7232V11.9708C1.40625 10.9992 2.0504 10.1452 2.98471 9.87826L4.33538 9.49236C4.7661 9.81615 5.87188 10.5469 7.5 10.5469C9.12812 10.5469 10.2339 9.81615 10.6646 9.49236L12.0153 9.87826C12.9496 10.1452 13.5938 10.9992 13.5938 11.9708V12.7232Z" fill="#A6A6A6"/>
</svg>
